<svg width="54" height="54" viewBox="0 0 54 54" fill="none" xmlns="http://www.w3.org/2000/svg">
<path d="M24.6285 39.9839H43.9691V36.5484H24.6285V39.9839ZM50.5549 45.9516V8.04839C50.5549 5.01613 48.9846 3.43548 45.9401 3.43548H8.04392C4.99941 3.43548 3.42908 5.01613 3.42908 8.04839V45.9032C3.42908 48.9355 4.99941 50.5161 8.04392 50.5161H45.892C48.9846 50.5645 50.5549 49 50.5549 45.9677V45.9516ZM53.984 46.2903C53.984 50.9516 50.9395 54 46.2766 54H7.70742C3.04451 54 0 50.9677 0 46.2903V7.70968C0 3.03226 3.04451 0 7.70742 0H46.2926C50.9555 0 54 3.03226 54 7.70968V46.2903H53.984ZM17.7223 17.3871H15.527C14.6777 17.3387 14.0047 18 13.9567 18.7903V27.6774C13.8926 28.5161 14.5816 29.2581 15.4148 29.2581H17.7223V17.3871ZM21.6641 14.0161V33.4839C21.6641 35.7903 20.6546 40.0161 13.9567 40.0161H12.3223V36.5806H13.9567C16.6006 36.5323 17.6742 35.4032 17.7223 33.4839V32.6936H14.4053C12.0979 32.8065 10.127 31.0645 10.0148 28.7581V18.4032C10.0148 15.7581 11.7614 14.0161 14.4053 14.0161H21.6641ZM43.9852 18.4032V32.6936H40.0433V18.9677C40.1074 18.1774 39.4825 17.4516 38.6973 17.3871H36.2777V32.6774H32.3359V17.3871H28.5703V32.6774H24.6285V14H39.5947C42.3507 14 43.9852 15.6935 43.9852 18.3871V18.4032Z" fill="white"/>
</svg>
